<svg id="Ebene_1" xmlns="http://www.w3.org/2000/svg" viewBox="0 0 1676.4 1073.9" width="2500" height="1601">
  <style>
    .st0 {
      fill: #6fb0e1
    }

    .st1 {
      fill: url(#path30_1_)
    }

    .st2 {
      fill: #4384c5
    }

    .st3 {
      fill: #4489c8
    }

  </style>
  <g id="g16">
    <path id="path22" class="st0" d="M280.3 656c223-143.2 475.7-40.2 601.6 28.7-174.4-68.9-430.1-85-601.6-28.7" />
    <radialGradient id="path30_1_" cx="-3946.678" cy="-391.143" r="3.191" gradientTransform="translate(1005464.188 99779.625) scale(254.6533)"
      gradientUnits="userSpaceOnUse">
      <stop offset="0" stop-color="#6fb0e1" />
      <stop offset="1" stop-color="#3a78bb" />
    </radialGradient>
    <path id="path30" class="st1" d="M334.7 572.7c-36.2 26.7-56.6 49.3-56.6 49.3 0 1 21.1-11.8 56.6-26.8v-22.5zm0-88.8c-23.5-45.5-15.4-97.1-15.4-97.1s-39.8 91.2 15.4 145.5v-48.4zm0-242.3v82.8c-36.7 21.1-61.4 60.4-61.4 105.4s24.7 84.3 61.4 105.4V550c-14.8 10-29.2 20.7-41.2 29.8-52.9-33.7-87.9-92.4-87.9-159.2.1-82.9 54-153.3 129.1-179zm0 82.8v-82.8c17-5.8 35.2-9.4 54-10.2-1 9.5-1.5 19.1-1.5 28.8 0 16.3 1.4 32.3 4.1 47.9-20.5.8-39.8 6.7-56.6 16.3zm0 225.6c13-8.8 26.2-17 38.3-23.3-5.9-3.8-11.5-8.1-16.4-13-9.3-9.2-16.4-19.3-21.9-29.9v48.4l1.4 1.4c2.3 2.2 4.8 4.3 7.3 6.2-3-1.4-5.9-2.9-8.7-4.6V550zm0 45.2v-22.5c69.7-51.4 197.9-118.4 352.1-70.1C921.2 576 1070.3 675.9 1251.4 631c181.1-45 197-143.9 197-143.9s-32 139.7-210.4 170.3c-178.4 30.7-342.8-3.7-551.8-81.6-141-52.6-277.6-11.8-351.5 19.4zM671.7 0c107.1 0 199.4 63.2 240.5 153.8h-83.8c-37-45.6-93.9-74.9-157.7-74.9-62.7 0-118.8 28.3-155.8 72.6 2-1.6 4-3.2 6.1-4.7 87.6-62.5 204.4 6.4 204.4 6.4s-111-32.1-186.1 20.5-63 158-63 158-.5-1.4-1.3-3.9c.3 1.2.6 2.4 1 3.6-18-13.2-39.8-21.9-63.6-24.2-2.8-15.3-4.3-31-4.3-47.1C408.2 116.5 526.2 0 671.7 0"
    />
    <path id="path32" class="st0" d="M924.1 537.1s111.8 57.3 217 47.9c105.2-9.3 137.1-46.6 137.1-46.6s-38.6 71.2-139.8 75.2c-101.2 4-214.3-73.9-214.3-76.5"
    />
    <path id="path34" class="st0" d="M838.3 269.3h94v-94h-94v94z" />
    <path id="path36" class="st2" d="M1211.7 508.5h72.7v-72.7h-72.7v72.7z" />
    <path id="path38" class="st0" d="M951.6 214.5H1077V89.2H951.6v125.3z" />
    <path id="path40" class="st2" d="M1315.5 431.5h125.4V306.1h-125.4v125.4z" />
    <path id="path42" class="st0" d="M1089 294.1h69.9v-69.9H1089v69.9z" />
    <path id="path44" class="st0" d="M1135.7 431.7h69.9v-69.9h-69.9v69.9z" />
    <path id="path46" class="st2" d="M988.6 438.7h69.9v-69.9h-69.9v69.9z" />
    <path id="path48" class="st2" d="M1233.6 296.5h69.9v-69.9h-69.9v69.9z" />
  </g>
</svg>
